<svg width="16" height="11" viewBox="0 0 16 11" fill="none" xmlns="http://www.w3.org/2000/svg">
<path fill-rule="evenodd" clip-rule="evenodd" d="M9.08264 0.928984L15.6976 5.09648C15.8801 5.21148 15.9893 5.41065 15.9893 5.62565C15.9893 5.83982 15.8801 6.03982 15.6976 6.15398L9.08264 10.3215C8.98181 10.3857 8.86598 10.4182 8.75014 10.4182C8.64598 10.4182 8.54264 10.3915 8.44847 10.3398C8.24848 10.2298 8.12514 10.0207 8.12514 9.79315L8.12431 6.24998L1.29181 6.25032C0.946809 6.25032 0.666809 5.97032 0.666809 5.62532C0.666809 5.28032 0.946809 5.00032 1.29181 5.00032L8.12431 4.99998L8.12514 1.45815C8.12514 1.22982 8.24848 1.02065 8.44847 0.910651C8.64764 0.801484 8.89181 0.808151 9.08264 0.928984ZM9.37514 2.59065L9.37502 5.61266C9.3751 5.61687 9.37514 5.62109 9.37514 5.62532L9.37431 5.63748L9.37514 8.65982L14.1918 5.62565L9.37514 2.59065Z" fill="#252525"/>
</svg>
